<svg xmlns="http://www.w3.org/2000/svg" viewBox="0 0 105.88 66.71"><defs><style>.cls-1{fill:#79e47c;}.cls-2{fill:#fff;}.cls-3{fill:#e2e3e4;}.cls-4{fill:#959595;}.cls-5{fill:#1fd224;}.cls-6{fill:#3c3c3b;}</style></defs><g id="Layer_2" data-name="Layer 2"><g id="Layer_1-2" data-name="Layer 1"><polygon class="cls-1" points="83.92 35.72 83.92 31.06 52.86 0 21.96 30.89 21.96 35.72 11.94 47.45 21.96 65.79 83.92 65.79 94.9 47.99 83.92 35.72"/><path class="cls-2" d="M24.66,48.34l3.92-5.11c.6-.81,1.15-1.51,1.63-2.12s.89-1.17,1.22-1.67A8.3,8.3,0,0,0,32.18,38a3.57,3.57,0,0,0,.26-1.32,2.08,2.08,0,0,0-.8-1.74,3.5,3.5,0,0,0-2.21-.62,10.29,10.29,0,0,0-1,.05,7.34,7.34,0,0,0-.84.16c-.27.08-.54.16-.79.26l-.82.34a15.14,15.14,0,0,1-.6-1.53A6.23,6.23,0,0,1,25,32l1.19-.44a7.78,7.78,0,0,1,1.11-.33,11,11,0,0,1,1.17-.18A11.33,11.33,0,0,1,29.89,31a10.42,10.42,0,0,1,2.63.31,5.8,5.8,0,0,1,2.07,1,4.42,4.42,0,0,1,1.35,1.62,5,5,0,0,1,.49,2.29A6.32,6.32,0,0,1,36.16,38a9.13,9.13,0,0,1-.75,1.75,18.91,18.91,0,0,1-1.14,1.8l-1.46,2-1.42,1.9H37.1a8.55,8.55,0,0,1,.16,1.58,9,9,0,0,1-.16,1.68H24.85Z"/><path class="cls-2" d="M39.67,46.2l7.58-15.33a10.21,10.21,0,0,1,1.76.39,5.4,5.4,0,0,1,1.59.87l-5.52,11.2h3.83V39.05l.89-.1a8.38,8.38,0,0,1,.88,0c.32,0,.65,0,1,0l1,.1v4.28h1.93a8.33,8.33,0,0,1,.12,2.44q0,.43-.12.81H52.61v3.75l-.88.09a8.57,8.57,0,0,1-.89,0c-.32,0-.64,0-1,0l-1-.09V46.58h-9Z"/><path class="cls-2" d="M62.15,29.48a11.69,11.69,0,0,1,1.93-.16,11.07,11.07,0,0,1,1.87.16L59.41,48.74a10.59,10.59,0,0,1-3.78,0Z"/><path class="cls-2" d="M76.19,34.54H68.12a8.68,8.68,0,0,1-.16-1.6,8.9,8.9,0,0,1,.16-1.66H81.3l.16.32L73.59,50.73a11.61,11.61,0,0,1-1.84-.57,7.44,7.44,0,0,1-1.7-1Z"/><path class="cls-3" d="M23.46,61.45h59A12.47,12.47,0,0,0,94.9,49V41.44H89.51v7.41a7.1,7.1,0,0,1-7.09,7.09h-59a7.11,7.11,0,0,1-7.1-7.09V41.44H11V49A12.47,12.47,0,0,0,23.46,61.45Z"/><path class="cls-4" d="M5.6,48.85A17.88,17.88,0,0,0,23.46,66.71h59a17.88,17.88,0,0,0,17.86-17.86V41.44H94.9V49A12.47,12.47,0,0,1,82.42,61.45h-59A12.47,12.47,0,0,1,11,49V41.44H5.6Z"/><path class="cls-5" d="M83.92,38a7,7,0,0,0,7,7h8.06a7,7,0,0,0,6.95-7V30.89h-22Z"/><rect class="cls-6" x="83.92" y="30.89" width="21.96" height="4.83"/><path class="cls-5" d="M0,38a7,7,0,0,0,7,7H15a7,7,0,0,0,7-7V30.89H0Z"/><rect class="cls-6" y="30.89" width="21.96" height="4.83"/></g></g></svg>