<svg xmlns="http://www.w3.org/2000/svg" viewBox="0 0 451.62 384.61"><defs><style>.cls-1{isolation:isolate;}.cls-2{fill:#e2f2f1;}.cls-3{mix-blend-mode:multiply;}.cls-4{fill:#1a6991;}.cls-5{fill:#4cb7d8;}.cls-6{fill:#abe9ff;}.cls-7{fill:#0a161e;}.cls-8{fill:#ef7f33;}.cls-9{fill:#223749;}.cls-10{fill:#fec786;}.cls-11{fill:#f99247;}.cls-12{fill:#122330;}.cls-13{fill:#21111d;}.cls-14{fill:#f5c786;}.cls-15{fill:#fe9f73;}.cls-16{fill:#f07162;}.cls-17{fill:#ef3a4c;}.cls-18{fill:#e02742;}.cls-19{fill:#f7597f;}.cls-20{fill:#ffd4e0;}.cls-21{fill:#49263e;}</style></defs><g class="cls-1"><g id="Layer_2" data-name="Layer 2"><g id="Layer_3" data-name="Layer 3"><path class="cls-2" d="M31,383.72S-30.78,281.64,20.11,224.16c39.32-44.4-58.36-112.81,95.38-189.76C261.78-38.83,367.82,13.87,414.6,107.88c55.64,111.81,41.18,203-17,275.84Z"/><g class="cls-3"><path class="cls-2" d="M257.47,98.84a56.37,56.37,0,0,0,1-18.23l13-7.45L268,63.5l-3.4-9.65-14.78,2.34a56.38,56.38,0,0,0-12.21-13.58l3.91-14.45-9.23-4.42-9.23-4.41-8.8,12.11a56.1,56.1,0,0,0-18.23-1l-7.46-13-9.65,3.4-9.65,3.41,2.34,14.78a56.34,56.34,0,0,0-13.58,12.2l-14.45-3.9-4.41,9.23-4.42,9.23,12.11,8.8a56.1,56.1,0,0,0-1,18.23l-13,7.46,3.41,9.65,3.4,9.65,14.78-2.34a56.34,56.34,0,0,0,12.2,13.58l-3.9,14.45,9.23,4.42,9.23,4.42,8.8-12.11a56.37,56.37,0,0,0,18.23,1l7.45,13,9.65-3.41,9.65-3.4-2.34-14.79a56.36,56.36,0,0,0,13.59-12.2l14.44,3.91,4.42-9.24,4.42-9.23Zm-53.8,26.26a38.39,38.39,0,1,1,36.87-39.86A38.39,38.39,0,0,1,203.67,125.1Z"/></g><g class="cls-3"><path class="cls-2" d="M375.75,118.78a38.88,38.88,0,0,0-6.18-11l4.83-9.16-5.56-4.38-5.57-4.38-7.77,6.84a38.89,38.89,0,0,0-12.15-3.42l-3.07-9.89-7,.83-7,.84-.66,10.33a39.15,39.15,0,0,0-11,6.17l-9.16-4.82L301,102.29l-4.37,5.56,6.83,7.77a39,39,0,0,0-3.42,12.16l-9.89,3.06.84,7,.83,7,10.34.66a38.66,38.66,0,0,0,6.17,11l-4.82,9.16,5.56,4.38,5.56,4.38,7.77-6.84a38.89,38.89,0,0,0,12.15,3.42l3.07,9.89,7-.84,7-.83.66-10.33a38.93,38.93,0,0,0,11-6.18l9.16,4.83,4.38-5.57,4.38-5.56-6.84-7.77a38.89,38.89,0,0,0,3.42-12.15l9.89-3.07-.84-7-.83-7Zm-33.66,39.76A26.56,26.56,0,1,1,365.32,129,26.55,26.55,0,0,1,342.09,158.54Z"/></g><g class="cls-3"><path class="cls-2" d="M113.64,88a26.23,26.23,0,0,0-5.85-6.21l1.67-6.8-4.36-2-4.37-2-4,5.76a25.92,25.92,0,0,0-8.53-.26l-3.62-6-4.48,1.7L75.65,74l1.25,6.89a26,26,0,0,0-6.21,5.85L63.89,85l-2,4.36-2,4.36,5.76,4a25.92,25.92,0,0,0-.26,8.53l-6,3.63,1.7,4.47,1.69,4.48,6.89-1.26a26.07,26.07,0,0,0,5.85,6.22l-1.67,6.8,4.36,2,4.36,2,4-5.76a26.48,26.48,0,0,0,8.53.26l3.63,6,4.47-1.7,4.48-1.69-1.26-6.89a26.26,26.26,0,0,0,6.22-5.85l6.79,1.67,2-4.36,2-4.36-5.75-4a26.54,26.54,0,0,0,.26-8.54l6-3.62-1.69-4.47-1.7-4.48ZM98.05,119.57a17.95,17.95,0,1,1,10.43-23.15A17.95,17.95,0,0,1,98.05,119.57Z"/></g><rect class="cls-4" x="57.91" y="239.4" width="316.36" height="99.54" transform="translate(432.17 578.33) rotate(180)"/><rect class="cls-5" x="59.31" y="239.56" width="54.28" height="143.63" transform="translate(172.89 622.76) rotate(180)"/><rect class="cls-6" x="54.94" y="239.56" width="4.37" height="143.63"/><rect x="59.14" y="239.56" width="0.33" height="143.63"/><rect x="54.77" y="239.56" width="0.33" height="121.71"/><path class="cls-7" d="M255.73,230.68h16l-9.22-44.93h22.75l9.22,44.93h16a6.56,6.56,0,0,1,5.61,4.08H253.19C252.34,232.51,253.48,230.68,255.73,230.68Z"/><path class="cls-8" d="M206.56,213.53,208,203.07l9-65.28a6.67,6.67,0,0,1,6.4-5.62H350l0-.16a4.92,4.92,0,0,1,5,5.78l-10.48,75.74c-.32,2.26-2.09,4.1-3.95,4.1H209.2l0-.16C207.45,217.47,206.26,215.71,206.56,213.53Z"/><polygon class="cls-9" points="268.88 233.4 291.62 233.4 281.85 185.75 259.1 185.75 268.88 233.4"/><path class="cls-10" d="M204,203.07l9-65.28a6.67,6.67,0,0,1,6.39-5.62H346a4.78,4.78,0,0,1,4.84,5.62l-9,65.28Z"/><path class="cls-11" d="M309.37,206.35l0,0h0l0,0,0,0s0,0,0,0h-.09Z"/><polygon class="cls-11" points="298.3 206.42 298.31 206.42 298.31 206.41 298.3 206.42"/><path class="cls-11" d="M295.87,203.14v0s0,0,0,0h0Z"/><path class="cls-6" d="M207.58,200.23,216.2,138a3.57,3.57,0,0,1,3.47-3H344.9a2.55,2.55,0,0,1,2.65,3l-8.62,62.27Z"/><path class="cls-12" d="M249.76,234.76c-.85-2.25.29-4.08,2.54-4.08H307a6.56,6.56,0,0,1,5.61,4.08H249.76Z"/><path class="cls-13" d="M205.16,217.63H336.54c1.86,0,3.63-1.84,3.94-4.1L351,137.79a4.93,4.93,0,0,0-5-5.78l-.05.33a4.64,4.64,0,0,1,4.7,5.45l-10.49,75.74c-.28,2.08-1.89,3.77-3.57,3.77H205.2Z"/><polygon class="cls-13" points="211.72 210.37 212.01 210.17 209.48 205.81 209.19 206 211.72 210.37"/><polygon class="cls-13" points="211.43 212.43 211.72 212.24 209.18 207.99 208.88 208.18 211.43 212.43"/><polygon class="cls-13" points="283.53 221.3 283.78 221.14 281.66 218.41 281.41 218.57 283.53 221.3"/><polygon class="cls-13" points="283.59 222.87 283.84 222.71 281.94 220.3 281.69 220.47 283.59 222.87"/><path class="cls-13" d="M207.39,200.4H338.91l0-.33H207.77L216.36,138a3.39,3.39,0,0,1,3.29-2.79l0-.33A3.75,3.75,0,0,0,216,138Z"/><path class="cls-14" d="M309.4,206.38h0l0,0h-.05Z"/><path class="cls-11" d="M205.18,217.47H336.56c1.77,0,3.46-1.76,3.76-3.94l1.45-10.46h-45.9s0,0,0,0v0l0-.07H204l-1.45,10.46C202.21,215.71,203.4,217.47,205.18,217.47Zm93.12-11.05h0Z"/><path d="M295.87,203.07h1.18a43.4,43.4,0,0,0,5-1.24l.51-.15.09,0a.08.08,0,0,0,.05-.09v0a.08.08,0,0,0-.11,0l-.08,0-.54.16a38.78,38.78,0,0,1-5.42,1.29L296,203h-.09A.1.1,0,0,0,295.87,203.07Z"/><rect class="cls-10" x="293.58" y="200.4" width="10.47" height="2.66" transform="translate(597.62 403.45) rotate(180)"/><rect class="cls-13" x="294.14" y="200.07" width="9.63" height="0.33" transform="translate(597.92 400.47) rotate(180)"/><rect class="cls-11" x="288.8" y="203.06" width="16.55" height="2.18" transform="translate(594.15 408.29) rotate(180)"/><rect class="cls-9" x="45.84" y="234.63" width="349.74" height="4.77" transform="translate(441.42 474.02) rotate(180)"/><rect class="cls-6" x="320.34" y="239.4" width="61.32" height="143.63" transform="translate(702.01 622.43) rotate(180)"/><rect class="cls-5" x="315.41" y="239.4" width="4.93" height="143.63"/><rect class="cls-12" x="101.76" y="294.09" width="47.71" height="88.94" transform="translate(251.22 677.12) rotate(180)"/><rect class="cls-9" x="71.42" y="294.09" width="30.34" height="88.94" transform="translate(173.18 677.12) rotate(180)"/><path class="cls-10" d="M96.6,302.88a1.23,1.23,0,1,0,1.23-1.23A1.23,1.23,0,0,0,96.6,302.88Z"/><path class="cls-10" d="M96.6,327.16a1.23,1.23,0,1,0,1.23-1.23A1.23,1.23,0,0,0,96.6,327.16Z"/><path class="cls-10" d="M96.6,351.43a1.23,1.23,0,1,0,1.23-1.22A1.23,1.23,0,0,0,96.6,351.43Z"/><rect class="cls-12" x="71.42" y="340.76" width="30.34" height="0.67" transform="translate(173.18 682.19) rotate(180)"/><rect class="cls-12" x="71.42" y="363.93" width="30.34" height="0.67" transform="translate(173.18 728.54) rotate(180)"/><rect class="cls-9" x="106.48" y="299.5" width="38.17" height="0.4" transform="translate(251.14 599.4) rotate(180)"/><rect class="cls-9" x="106.48" y="301.62" width="38.17" height="0.4" transform="translate(251.14 603.64) rotate(180)"/><rect class="cls-9" x="106.48" y="303.74" width="38.17" height="0.4" transform="translate(251.14 607.87) rotate(180)"/><rect class="cls-9" x="106.48" y="305.86" width="38.17" height="0.4" transform="translate(251.14 612.11) rotate(180)"/><rect class="cls-12" x="71.42" y="314.68" width="30.34" height="0.67" transform="translate(173.18 630.03) rotate(180)"/><polygon points="71.14 383.03 71.7 383.03 71.7 294.38 149.18 294.38 149.18 383.03 149.75 383.03 149.75 293.81 71.14 293.81 71.14 383.03"/><rect x="101.48" y="294.09" width="0.56" height="37.72"/><rect x="118.26" y="363.99" width="0.56" height="13.45" transform="translate(-255.06 261.61) rotate(-55.99)"/><rect x="112.69" y="366.92" width="0.56" height="13.45" transform="translate(-259.93 258.24) rotate(-55.98)"/><path class="cls-15" d="M182.9,150.89V164.6s.2,4.64-3.86,5.21l.76,6.19a4.83,4.83,0,0,1-3.3,5.2,12.73,12.73,0,0,1-3.83.59,7.73,7.73,0,0,1-7.53-5.22c-.39-1.73.77-10,.77-10l-.14-4.08.52-15.81Z"/><path class="cls-13" d="M166.83,147.4l3.24,4.58s9.79,3.8,14.82-.7,3.47-6.67,2-8.93c-.72-1.11-4.19-3.38-8.44-1.49-2.32,1-4-2-6.74-.5s-5.89,4.22-5.53,5.28S166.83,147.4,166.83,147.4Z"/><path class="cls-13" d="M167,145.47s-4.46-.21-5.7,4.08.43,6.54.47,7.82-.83,9.9,5.23,9.26l1.64-14.25-2.11-5.67Z"/><path class="cls-13" d="M179.92,152.23s.36,4,0,5.13-4.76,4-4.76,4-.37,7.69-1.1,8.05-7.23-1.05-9.29-3.08.13-18.16.13-18.16,1.83-2.2,3.66-2.56,10.63-1.1,10.26,0S179.92,152.23,179.92,152.23Z"/><ellipse class="cls-15" cx="175.41" cy="159.26" rx="3.4" ry="3.48"/><path class="cls-16" d="M175.16,161.39a1.43,1.43,0,0,1-1.33-1.09,1.36,1.36,0,0,1,.54-1.59,1.55,1.55,0,0,1,1.78.07,1.5,1.5,0,0,0-.68-.86,2.12,2.12,0,0,0-1.52-.1.09.09,0,0,1-.12-.06.11.11,0,0,1,.06-.12,2.21,2.21,0,0,1,1.67.11,1.88,1.88,0,0,1,.86,1.27l.09.33-.24-.24a1.46,1.46,0,0,0-1.81-.23,1.2,1.2,0,0,0-.45,1.37,1.23,1.23,0,0,0,1.15.94h0a.1.1,0,0,1,.1.1.11.11,0,0,1-.1.1Z"/><polygon class="cls-17" points="181.31 176.75 180.58 173.14 163.88 170.52 162.74 174.88 170.23 176.75 181.31 176.75"/><path class="cls-15" d="M270.43,225.36s10.73.06,13.54,2.5,3.49,6.77,3.49,6.77H266.25Z"/><polygon class="cls-15" points="183.72 373.64 163.25 370.44 167.61 348.57 189.85 351.44 183.72 373.64"/><path class="cls-18" d="M162.91,378.53h19.27L190,369.8l14.3,8.73h3.07a2.27,2.27,0,0,1,2.24,1.8,2.24,2.24,0,0,1-2.16,2.7h-44.8a.6.6,0,0,1-.6-.61v-3A.88.88,0,0,1,162.91,378.53Z"/><path class="cls-19" d="M163.08,378.56v-8.12s3.25-4.48,8.19-2.19c0,0,7.47,5.44,14.06-1.15l16.36,7.45s4.49,1.54,5.7,4Z"/><rect x="162.92" y="370.44" width="0.33" height="8.07"/><path d="M178,370.53a7.52,7.52,0,0,0,1-.06l0-.33a11.43,11.43,0,0,1-7.57-2l-.18.27A11.88,11.88,0,0,0,178,370.53Z"/><polygon points="167.06 377.04 167.25 376.76 165.16 375.31 164.97 375.59 167.06 377.04"/><polygon points="168.56 376.63 168.75 376.35 166.66 374.91 166.47 375.19 168.56 376.63"/><path d="M209,382.64a2.43,2.43,0,0,0,.83-1.85,2.39,2.39,0,0,0-2.36-2.41h-44.3a1.27,1.27,0,0,0-1.26,1.29v2.25h.32v-2.25a1,1,0,0,1,.94-1h44.3a2.06,2.06,0,0,1,2,2.08,2.1,2.1,0,0,1-.71,1.59Z"/><path d="M207.3,378.62l.29-.15c0-.08-.93-2-4.28-3.43s-17.77-8-17.91-8.09l-.14.31c.15.06,14.63,6.65,17.92,8.09S207.29,378.6,207.3,378.62Z"/><polygon class="cls-15" points="237.65 373.64 217.17 370.44 221.53 348.57 243.78 351.44 237.65 373.64"/><path class="cls-17" d="M216.84,378.53h19.27l7.81-8.73,14.29,8.73h3.08a2.25,2.25,0,0,1,.08,4.5H216.56a.6.6,0,0,1-.6-.61v-3A.88.88,0,0,1,216.84,378.53Z"/><path class="cls-19" d="M217,378.56v-8.12s3.24-4.48,8.18-2.19c0,0,7.48,5.44,14.07-1.15l16.36,7.45s4.48,1.54,5.7,4Z"/><rect x="216.84" y="370.44" width="0.33" height="8.07"/><path d="M231.89,370.53a7.6,7.6,0,0,0,1-.06l0-.33a11.42,11.42,0,0,1-7.57-2l-.19.27A11.88,11.88,0,0,0,231.89,370.53Z"/><polygon points="220.99 377.04 221.17 376.76 219.08 375.31 218.9 375.59 220.99 377.04"/><polygon points="222.49 376.63 222.67 376.35 220.58 374.91 220.4 375.19 222.49 376.63"/><path d="M262.89,382.64a2.44,2.44,0,0,0,.84-1.85,2.39,2.39,0,0,0-2.36-2.41H217.06a1.28,1.28,0,0,0-1.26,1.29v2.25h.33v-2.25a1,1,0,0,1,.93-1h44.31a2.09,2.09,0,0,1,1.31,3.67Z"/><path d="M261.22,378.62l.3-.15c0-.08-.94-2-4.28-3.43s-17.77-8-17.92-8.09l-.13.31c.15.06,14.62,6.65,17.92,8.09S261.21,378.6,261.22,378.62Z"/><path class="cls-12" d="M204.84,267.6c-5.21-13.9-21.4-17.21-21.4-17.21s-34.58-4.59-40.24,4.94c-11.67,19.66.35,36.24,10.63,38.52,2.5.56,6.71.24,11.45.38,3.82.12,10.26-.14,10.26-.14L165,353.73c9.39,2.28,25.28,2.74,25.28,2.74C203.08,326.1,207,273.37,204.84,267.6Z"/><path class="cls-9" d="M258.23,281.21C258.75,265,200.3,262,200.3,262s-32.9-11.55-38.56-2c-11.67,19.65.35,36.23,10.63,38.51,2.5.56,6.72.22,11.46.39,13.61.46,32.57.2,35.46.16h0l9.11-.32-10.53,59.64c9.39,2.28,25.27,2.74,25.27,2.74C255.94,330.74,258,287.37,258.23,281.21Z"/><path class="cls-20" d="M271.21,223.87l-41.38-5.82s-25.64-32.64-29.14-35-18.65-8.74-44.87-8.16S124.93,232,124.93,232s41.31,47.51,43.13,47.79c24.88,3.86,33.83-17.72,33.83-17.72l-2.42-38.28,13.22,10.81h58.52Z"/><path d="M154.26,264.94a.32.32,0,0,0,.3-.32c-.12-14.16-.74-74.47-.74-74.68a.33.33,0,0,0-.65,0c0,.21.62,60.53.74,74.69a.32.32,0,0,0,.33.32Z"/><path class="cls-18" d="M183.47,191.77,191,291.24c.36,4.74-.85,8.59-2.7,8.59H132.83c-1.85,0-3.64-3.85-4-8.59l-7.53-99.47c-.35-4.74.85-8.59,2.7-8.59h55.47C181.32,183.18,183.11,187,183.47,191.77Z"/><path class="cls-17" d="M180.28,191.77l7.53,99.47c.36,4.74-.85,8.59-2.7,8.59H129.64c-1.85,0-3.64-3.85-4-8.59l-7.52-99.47c-.36-4.74.84-8.59,2.69-8.59h55.48C178.14,183.18,179.93,187,180.28,191.77Z"/><path class="cls-18" d="M223.22,293.14H135.68a3.36,3.36,0,0,0,0,6.69h87.54a3.36,3.36,0,0,0,0-6.69Z"/><path class="cls-17" d="M187.72,293.14H135.89a3.35,3.35,0,0,0,0,6.69H188.3a3.06,3.06,0,0,0,2.65-3.34A3.29,3.29,0,0,0,187.72,293.14Z"/><polygon class="cls-18" points="187.76 290.64 188.3 299.83 194.31 299.83 190.63 293.14 187.76 290.64"/><path class="cls-11" d="M196.29,377.76H174.88V299.83h-4.76v77.93H149.26A5.27,5.27,0,0,0,144,383h57.57A5.27,5.27,0,0,0,196.29,377.76Z"/><path d="M123.54,267.2l-5.47-72.3a20.81,20.81,0,0,1,.8-10.5,2.21,2.21,0,0,1,2.39-1.5h54.05v.56H121.19a1.66,1.66,0,0,0-1.8,1.14,20.31,20.31,0,0,0-.76,10.23l5.47,72.33Z"/><rect x="184.13" y="208.86" width="0.56" height="74.9" transform="translate(-18.05 14.61) rotate(-4.33)"/><rect x="129.64" y="299.55" width="93.58" height="0.56"/><rect x="141.06" y="269.35" width="0.56" height="9.17" transform="translate(-132.25 131.93) rotate(-35.28)"/><rect x="141.06" y="275.89" width="0.56" height="9.17" transform="translate(-136.03 133.14) rotate(-35.28)"/><polygon points="196.29 378.04 174.6 378.04 174.6 299.83 175.16 299.83 175.16 377.48 196.29 377.48 196.29 378.04"/><path d="M270.93,230.85h.56v-7.22L230,217.78c-1.35-1.69-21.32-26.87-25.85-31.65a27.47,27.47,0,0,0-4.26-3.87c-1.71-1.12-8.47-4.89-23.76-6.6l-.07.56c15.17,1.69,21.84,5.41,23.52,6.51a26.35,26.35,0,0,1,4.15,3.78c4.66,4.92,25.69,31.44,25.9,31.71l.07.09,41.25,5.81Z"/><path d="M195.31,271.83c3.28-2.82,6.68-9.33,6.83-9.6l0-.07-2.42-38.36-.56,0L201.6,262c-.37.71-3.63,6.77-6.66,9.37Z"/><rect x="204.63" y="218.2" width="0.56" height="20.11" transform="translate(-101.5 242.5) rotate(-50.75)"/><rect x="200.16" y="234.57" width="195.42" height="0.33" transform="translate(-0.26 0.33) rotate(-0.06)"/><rect x="200.43" y="239.23" width="195.16" height="0.33"/><path d="M381.51,271.94h.33s0-32,0-32.54h-.34C381.48,240,381.51,271.94,381.51,271.94Z"/><rect x="315.24" y="239.4" width="0.33" height="143.63"/><rect x="320.18" y="239.4" width="0.33" height="70.16"/><rect x="348.5" y="248.38" width="7.52" height="0.33" transform="translate(-75.96 298.41) rotate(-41.85)"/><polygon points="348.86 255.04 354.47 250.02 354.25 249.77 348.64 254.79 348.86 255.04"/><rect x="257.46" y="338.77" width="57.8" height="0.33"/><path class="cls-21" d="M289,157.33a10.84,10.84,0,0,1,.12,1.62,11.55,11.55,0,1,1-2.34-7l2.78-2.64A15.39,15.39,0,1,0,293,159a15.69,15.69,0,0,0-.15-2.19Z"/><path class="cls-17" d="M268.29,159.4h18.58a9.14,9.14,0,0,1,9.14,9.14v4.69a18.43,18.43,0,0,1-18.43,18.43h0a18.43,18.43,0,0,1-18.43-18.43v-4.69a9.14,9.14,0,0,1,9.14-9.14Z"/><path class="cls-13" d="M271.12,191.82h-3.33A8.8,8.8,0,0,1,259,183V163.69a.15.15,0,0,1,.16-.15.15.15,0,0,1,.15.15V183a8.5,8.5,0,0,0,8.49,8.49h3.33a.15.15,0,1,1,0,.3Z"/><path class="cls-13" d="M296,165a.15.15,0,0,1-.15-.15v-1.14a4.14,4.14,0,0,0-4.13-4.14H283.1a.15.15,0,0,1-.15-.15.15.15,0,0,1,.15-.15h8.63a4.45,4.45,0,0,1,4.44,4.44v1.14A.16.16,0,0,1,296,165Z"/><path class="cls-13" d="M293,159.1a.15.15,0,0,1-.15-.15,17.12,17.12,0,0,0-.13-2l-3.62.55a.16.16,0,0,1-.05-.31l3.92-.59,0,.15a16.56,16.56,0,0,1,.15,2.22A.15.15,0,0,1,293,159.1Z"/><path class="cls-13" d="M262.22,159.1a.15.15,0,0,1-.15-.15,15.52,15.52,0,0,1,27.64-9.71l.09.11-3,2.85-.1-.13a11.33,11.33,0,0,0-9.1-4.53.16.16,0,0,1-.16-.15.16.16,0,0,1,.16-.16,11.61,11.61,0,0,1,9.23,4.52l2.56-2.43a15.22,15.22,0,0,0-27,9.63A.15.15,0,0,1,262.22,159.1Z"/><path class="cls-6" d="M280.67,172.88a3.09,3.09,0,1,0-4.34,2.82V180a1.25,1.25,0,0,0,1.25,1.25h0a1.25,1.25,0,0,0,1.25-1.25V175.7A3.09,3.09,0,0,0,280.67,172.88Z"/><path class="cls-13" d="M277.58,181.43a1.4,1.4,0,0,1-1.4-1.4V175.8a3.24,3.24,0,1,1,4.64-2.92.15.15,0,1,1-.3,0,2.94,2.94,0,1,0-4.13,2.68l.09,0V180a1.1,1.1,0,0,0,1.1,1.1.15.15,0,0,1,.15.15A.15.15,0,0,1,277.58,181.43Z"/><rect class="cls-13" x="13.74" y="382.83" width="437.88" height="1.78"/></g></g></g></svg>