<svg xmlns="http://www.w3.org/2000/svg" viewBox="0 0 80.19 50"><defs><style>.cls-1{fill:#79e47c;}.cls-2{fill:#1fd224;}.cls-3{fill:#fff;}.cls-4{fill:#4c4c4c;}.cls-5{fill:#3c3c3b;}.cls-6{fill:#26d32b;}</style></defs><g id="Layer_2" data-name="Layer 2"><g id="Layer_1-2" data-name="Layer 1"><path class="cls-1" d="M1.89,0A1.88,1.88,0,0,0,0,1.89V48.12A1.88,1.88,0,0,0,1.89,50h13.2l50-50Z"/><path class="cls-2" d="M78.3,0H65.09l-50,50H78.3a1.89,1.89,0,0,0,1.89-1.88V1.89A1.89,1.89,0,0,0,78.3,0Z"/><path class="cls-3" d="M76.5,19.1A10.6,10.6,0,1,1,65.91,8.5,10.59,10.59,0,0,1,76.5,19.1Z"/><path class="cls-1" d="M65.91,8.5A10.6,10.6,0,1,0,76.5,19.1,10.61,10.61,0,0,0,65.91,8.5ZM62.26,24.35h3.06V28.5h-.18A13,13,0,0,1,62.26,24.35ZM56.5,19.68H60a14.66,14.66,0,0,0,.6,3.5H57.42A9.35,9.35,0,0,1,56.5,19.68Zm10-5.94V9.69h.1a13.21,13.21,0,0,1,2.65,4Zm3.16,1.17a12.72,12.72,0,0,1,.57,3.6H66.49v-3.6Zm-4.33-1.17h-3a13.12,13.12,0,0,1,2.82-4l.2,0Zm0,1.17v3.6H61.17a13.17,13.17,0,0,1,.67-3.6ZM60,18.51H56.5a9.25,9.25,0,0,1,1-3.6h3.14A14.36,14.36,0,0,0,60,18.51Zm1.17,1.17h4.15v3.5H61.81A13.2,13.2,0,0,1,61.17,19.68Zm5.32,8.21V24.35H69A12.9,12.9,0,0,1,66.49,27.89Zm0-4.71v-3.5h3.7a13.31,13.31,0,0,1-.74,3.5Zm4.87-3.5h4a9.53,9.53,0,0,1-.91,3.5H70.69A14.65,14.65,0,0,0,71.36,19.68Zm0-1.17a14.43,14.43,0,0,0-.52-3.6h3.47a9.25,9.25,0,0,1,1,3.6Zm2.26-4.77H70.49A14,14,0,0,0,68.4,10,9.48,9.48,0,0,1,73.65,13.74ZM63.21,10.07A14.28,14.28,0,0,0,61,13.74H58.16A9.47,9.47,0,0,1,63.21,10.07ZM58.09,24.35H61a14.39,14.39,0,0,0,2.22,3.78A9.44,9.44,0,0,1,58.09,24.35Zm9.58,4a14.24,14.24,0,0,0,2.57-4h3.48A9.43,9.43,0,0,1,67.67,28.35Z"/><polygon class="cls-4" points="0 33.62 0 41.64 23.45 41.64 31.47 33.62 0 33.62"/><polygon class="cls-5" points="80.19 33.62 31.47 33.62 23.45 41.64 80.19 41.64 80.19 33.62"/><rect class="cls-6" x="7.18" y="15.09" width="18.2" height="8.02"/></g></g></svg>