<svg xmlns="http://www.w3.org/2000/svg" viewBox="0 0 60.09 91.1"><defs><style>.cls-1{fill:#1fd224;}.cls-2{fill:#fff;}.cls-3{fill:#f9b59d;}.cls-4{fill:#ffcab3;}.cls-5{fill:#9afc9a;}.cls-6{fill:#e2e3e4;}.cls-7{fill:#959595;}.cls-8{fill:#3c3c3b;}</style></defs><g id="Layer_2" data-name="Layer 2"><g id="Layer_1-2" data-name="Layer 1"><rect class="cls-1" x="12.37" y="20.83" width="35.33" height="18.13" rx="6.6"/><path class="cls-2" d="M19,25.36c.27,0,.58-.07.94-.1s.81,0,1.35,0a7.07,7.07,0,0,1,1.33.12,3.33,3.33,0,0,1,1.1.39,2,2,0,0,1,.73.74,2.22,2.22,0,0,1,.27,1.15,2.33,2.33,0,0,1-.12.76,2,2,0,0,1-.33.62,1.87,1.87,0,0,1-.46.43,1.1,1.1,0,0,1-.52.21,3.4,3.4,0,0,1,.65.18A2.16,2.16,0,0,1,25.13,31a2.4,2.4,0,0,1,.2,1.05A2.61,2.61,0,0,1,25,33.36a2.26,2.26,0,0,1-.84.84,3.66,3.66,0,0,1-1.23.43,10,10,0,0,1-1.47.11c-.4,0-.78,0-1.17,0s-.82-.06-1.3-.12Zm2.42,3.74a2.76,2.76,0,0,0,.59-.05,1.17,1.17,0,0,0,.48-.21.91.91,0,0,0,.32-.4,1.41,1.41,0,0,0,.12-.63,1.22,1.22,0,0,0-.14-.61,1,1,0,0,0-.34-.37,1.26,1.26,0,0,0-.48-.18,3,3,0,0,0-.52,0,5.09,5.09,0,0,0-.6,0V29.1Zm-.57,4.08.42,0h.43a3.64,3.64,0,0,0,.56,0,1.73,1.73,0,0,0,.55-.2,1.29,1.29,0,0,0,.43-.41,1.26,1.26,0,0,0,.16-.69,1.54,1.54,0,0,0-.12-.65,1.11,1.11,0,0,0-.37-.43,1.64,1.64,0,0,0-.56-.22,4,4,0,0,0-.73-.07h-.77Z"/><path class="cls-2" d="M26.68,25.38a2.59,2.59,0,0,1,.47-.05l.48,0,.45,0a2.59,2.59,0,0,1,.47.05v4.78a12.57,12.57,0,0,0,.06,1.33,2.81,2.81,0,0,0,.23.93,1.13,1.13,0,0,0,.48.53,1.69,1.69,0,0,0,.82.18A1.62,1.62,0,0,0,31,33a1.19,1.19,0,0,0,.48-.53,3.08,3.08,0,0,0,.23-.93,12.87,12.87,0,0,0,.05-1.33V25.38a2.91,2.91,0,0,1,.49-.05l.45,0,.47,0a2.61,2.61,0,0,1,.48.05v5.17a8.15,8.15,0,0,1-.16,1.71,3.26,3.26,0,0,1-.55,1.33,2.55,2.55,0,0,1-1.06.85,4.91,4.91,0,0,1-3.38,0,2.58,2.58,0,0,1-1.07-.85,3.55,3.55,0,0,1-.55-1.33,8.92,8.92,0,0,1-.15-1.71Z"/><path class="cls-2" d="M37.43,31.3l-2.87-5.92a7.82,7.82,0,0,1,1.07-.08,6.37,6.37,0,0,1,1,.08l1.82,4.17,1.79-4.17a6.27,6.27,0,0,1,1-.08,7,7,0,0,1,1,.08L39.31,31.3v3.3a4.28,4.28,0,0,1-.49,0h-.91a3.91,3.91,0,0,1-.48,0Z"/><path class="cls-3" d="M24,65.52c0,1.67,1.34,2.6,3,3.85h0a3,3,0,0,0,3-3l0-8a3,3,0,0,0-3-3h0a3,3,0,0,0-3,3Z"/><path class="cls-4" d="M51.32,76.7l-.07-23.59v-.72a3,3,0,1,0-6.06,0V50.14a3,3,0,1,0-6.05,0v-2a3,3,0,0,0-6-.19V35.32a3,3,0,0,0-6.07,0v15h0l.07,24.14a.69.69,0,0,0,0,.13l0,10.49L51.34,85Z"/><path class="cls-5" d="M31.42,9.81a1.35,1.35,0,0,1-1.35,1.35h0a1.35,1.35,0,0,1-1.36-1.35V1.35A1.35,1.35,0,0,1,30.07,0h0a1.35,1.35,0,0,1,1.35,1.35Z"/><path class="cls-5" d="M16.71,14.77a1.36,1.36,0,0,1,0,1.91h0a1.35,1.35,0,0,1-1.91,0l-6-6a1.36,1.36,0,0,1,0-1.91h0a1.35,1.35,0,0,1,1.91,0Z"/><path class="cls-5" d="M9.81,28.68A1.35,1.35,0,0,1,11.16,30h0a1.36,1.36,0,0,1-1.35,1.35H1.35A1.36,1.36,0,0,1,0,30H0a1.35,1.35,0,0,1,1.35-1.34Z"/><path class="cls-5" d="M14.77,43.39a1.35,1.35,0,0,1,1.91,0h0a1.36,1.36,0,0,1,0,1.91l-6,6a1.36,1.36,0,0,1-1.91,0h0a1.35,1.35,0,0,1,0-1.91Z"/><path class="cls-5" d="M50.28,31.42a1.36,1.36,0,0,1-1.35-1.35h0a1.35,1.35,0,0,1,1.35-1.35h8.46a1.34,1.34,0,0,1,1.35,1.35h0a1.35,1.35,0,0,1-1.35,1.35Z"/><path class="cls-5" d="M45.32,16.71a1.36,1.36,0,0,1-1.91,0h0a1.35,1.35,0,0,1,0-1.91l6-6a1.35,1.35,0,0,1,1.91,0h0a1.36,1.36,0,0,1,0,1.91Z"/><polygon class="cls-6" points="39.2 75.59 27.08 75.59 27.11 87.96 39.24 87.92 39.2 75.59"/><polygon class="cls-7" points="51.36 87.89 51.32 75.59 39.2 75.59 39.24 87.92 51.36 87.89"/><polygon class="cls-7" points="27.11 82.25 26.23 82.25 26.26 91.1 39.25 91.06 39.23 82.21 27.11 82.25"/><polygon class="cls-8" points="52.22 82.17 51.34 82.17 39.23 82.21 39.25 91.06 52.25 91.02 52.22 82.17"/><path class="cls-2" d="M28.55,86.75a2,2,0,1,0,2-2A2,2,0,0,0,28.55,86.75Z"/></g></g></svg>